<mxfile host="Electron" modified="2023-09-01T17:34:32.515Z" agent="Mozilla/5.0 (Windows NT 10.0; Win64; x64) AppleWebKit/537.36 (KHTML, like Gecko) draw.io/21.6.8 Chrome/114.0.5735.289 Electron/25.5.0 Safari/537.36" etag="vg03qlLdchDkmQijef9Q" version="21.6.8" type="device">
  <diagram name="Page-1" id="uydG_ki4K1CXha3IWOBT">
    <mxGraphModel dx="766" dy="519" grid="1" gridSize="10" guides="1" tooltips="1" connect="1" arrows="1" fold="1" page="1" pageScale="1" pageWidth="850" pageHeight="1100" math="0" shadow="0">
      <root>
        <mxCell id="0" />
        <mxCell id="1" parent="0" />
        <mxCell id="8ZSUCNv75TxHgOJGjgsO-1" value="" style="verticalLabelPosition=bottom;verticalAlign=top;html=1;shape=mxgraph.basic.partConcEllipse;startAngle=0.25;endAngle=0.75;arcWidth=0.3;strokeColor=#00CC00;" vertex="1" parent="1">
          <mxGeometry x="200" y="320" width="420" height="420" as="geometry" />
        </mxCell>
        <mxCell id="8ZSUCNv75TxHgOJGjgsO-2" value="" style="verticalLabelPosition=bottom;verticalAlign=top;html=1;shape=mxgraph.basic.partConcEllipse;startAngle=0.25;endAngle=0.75;arcWidth=0.4;strokeColor=#00CC00;" vertex="1" parent="1">
          <mxGeometry x="260" y="380" width="300" height="300" as="geometry" />
        </mxCell>
        <mxCell id="8ZSUCNv75TxHgOJGjgsO-3" value="" style="strokeWidth=1;html=1;shape=mxgraph.flowchart.start_2;whiteSpace=wrap;strokeColor=#00CC00;" vertex="1" parent="1">
          <mxGeometry x="320" y="441.25" width="180" height="177.5" as="geometry" />
        </mxCell>
        <mxCell id="8ZSUCNv75TxHgOJGjgsO-4" value="" style="verticalLabelPosition=bottom;verticalAlign=top;html=1;shape=mxgraph.basic.partConcEllipse;startAngle=0.25;endAngle=0.75;arcWidth=0.41;rotation=-180;strokeColor=#FF0000;" vertex="1" parent="1">
          <mxGeometry x="250" y="370" width="320" height="310" as="geometry" />
        </mxCell>
        <mxCell id="8ZSUCNv75TxHgOJGjgsO-8" value="" style="verticalLabelPosition=bottom;verticalAlign=top;html=1;shape=mxgraph.basic.partConcEllipse;startAngle=0.25;endAngle=0.75;arcWidth=0.29;rotation=-180;strokeColor=#FF0000;" vertex="1" parent="1">
          <mxGeometry x="191.25" y="310" width="437.5" height="430" as="geometry" />
        </mxCell>
        <mxCell id="8ZSUCNv75TxHgOJGjgsO-10" value="" style="line;strokeWidth=1;direction=south;html=1;strokeColor=#FF0000;" vertex="1" parent="1">
          <mxGeometry x="405" y="311" width="10" height="60" as="geometry" />
        </mxCell>
        <mxCell id="8ZSUCNv75TxHgOJGjgsO-11" value="" style="line;strokeWidth=1;direction=south;html=1;rotation=-45;strokeColor=#FF0000;" vertex="1" parent="1">
          <mxGeometry x="320" y="405.5" width="10" height="62.5" as="geometry" />
        </mxCell>
        <mxCell id="8ZSUCNv75TxHgOJGjgsO-12" value="" style="line;strokeWidth=1;direction=south;html=1;rotation=50;strokeColor=#FF0000;" vertex="1" parent="1">
          <mxGeometry x="500" y="416" width="10" height="60" as="geometry" />
        </mxCell>
        <mxCell id="8ZSUCNv75TxHgOJGjgsO-13" value="" style="line;strokeWidth=1;direction=south;html=1;strokeColor=#00CC00;" vertex="1" parent="1">
          <mxGeometry x="405" y="680" width="10" height="60" as="geometry" />
        </mxCell>
        <mxCell id="8ZSUCNv75TxHgOJGjgsO-14" value="" style="line;strokeWidth=1;direction=south;html=1;rotation=-45;strokeColor=#00CC00;" vertex="1" parent="1">
          <mxGeometry x="530" y="628" width="10" height="60" as="geometry" />
        </mxCell>
        <mxCell id="8ZSUCNv75TxHgOJGjgsO-15" value="User Interface(s)" style="text;strokeColor=none;align=center;fillColor=none;html=1;verticalAlign=middle;whiteSpace=wrap;rounded=0;rotation=-45;" vertex="1" parent="1">
          <mxGeometry x="220" y="396" width="110" height="20" as="geometry" />
        </mxCell>
        <mxCell id="8ZSUCNv75TxHgOJGjgsO-16" value="API (s)&amp;nbsp;" style="text;strokeColor=none;align=center;fillColor=none;html=1;verticalAlign=middle;whiteSpace=wrap;rounded=0;rotation=40;" vertex="1" parent="1">
          <mxGeometry x="490" y="390" width="110" height="20" as="geometry" />
        </mxCell>
        <mxCell id="8ZSUCNv75TxHgOJGjgsO-17" value="Abstractions" style="text;strokeColor=none;align=center;fillColor=none;html=1;verticalAlign=middle;whiteSpace=wrap;rounded=0;rotation=0;" vertex="1" parent="1">
          <mxGeometry x="358" y="515" width="110" height="20" as="geometry" />
        </mxCell>
        <mxCell id="8ZSUCNv75TxHgOJGjgsO-18" value="Generics &amp;amp; Extensions" style="text;strokeColor=none;align=center;fillColor=none;html=1;verticalAlign=middle;whiteSpace=wrap;rounded=0;rotation=0;" vertex="1" parent="1">
          <mxGeometry x="350" y="635.5" width="130" height="20" as="geometry" />
        </mxCell>
        <mxCell id="8ZSUCNv75TxHgOJGjgsO-19" value="Pattern Implementation" style="text;strokeColor=none;align=center;fillColor=none;html=1;verticalAlign=middle;whiteSpace=wrap;rounded=0;rotation=50;" vertex="1" parent="1">
          <mxGeometry x="210" y="640" width="140" height="20" as="geometry" />
        </mxCell>
        <mxCell id="8ZSUCNv75TxHgOJGjgsO-20" value="Utils" style="text;strokeColor=none;align=center;fillColor=none;html=1;verticalAlign=middle;whiteSpace=wrap;rounded=0;rotation=-25;" vertex="1" parent="1">
          <mxGeometry x="420" y="688" width="110" height="20" as="geometry" />
        </mxCell>
        <mxCell id="8ZSUCNv75TxHgOJGjgsO-21" value="Tests" style="text;strokeColor=none;align=center;fillColor=none;html=1;verticalAlign=middle;whiteSpace=wrap;rounded=0;rotation=-60;" vertex="1" parent="1">
          <mxGeometry x="518.75" y="590" width="110" height="20" as="geometry" />
        </mxCell>
        <mxCell id="8ZSUCNv75TxHgOJGjgsO-22" value="Domain Tests" style="text;strokeColor=none;align=center;fillColor=none;html=1;verticalAlign=middle;whiteSpace=wrap;rounded=0;rotation=60;" vertex="1" parent="1">
          <mxGeometry x="490" y="470" width="70" height="20" as="geometry" />
        </mxCell>
        <mxCell id="8ZSUCNv75TxHgOJGjgsO-23" value="Domain Logic" style="text;strokeColor=none;align=center;fillColor=none;html=1;verticalAlign=middle;whiteSpace=wrap;rounded=0;rotation=0;" vertex="1" parent="1">
          <mxGeometry x="376" y="394" width="70" height="20" as="geometry" />
        </mxCell>
        <mxCell id="8ZSUCNv75TxHgOJGjgsO-24" value="Domain Data" style="text;strokeColor=none;align=center;fillColor=none;html=1;verticalAlign=middle;whiteSpace=wrap;rounded=0;rotation=-60;" vertex="1" parent="1">
          <mxGeometry x="262" y="466.5" width="70" height="20" as="geometry" />
        </mxCell>
        <mxCell id="8ZSUCNv75TxHgOJGjgsO-25" value="" style="html=1;shadow=0;dashed=0;align=center;verticalAlign=middle;shape=mxgraph.arrows2.arrow;dy=0.55;dx=23.88;flipH=1;notch=0;rotation=90;strokeColor=#CC0000;" vertex="1" parent="1">
          <mxGeometry x="53.5" y="432.5" width="155" height="30" as="geometry" />
        </mxCell>
        <mxCell id="8ZSUCNv75TxHgOJGjgsO-26" value="" style="html=1;shadow=0;dashed=0;align=center;verticalAlign=middle;shape=mxgraph.arrows2.arrow;dy=0.56;dx=25.51;flipH=1;notch=0;rotation=-90;strokeColor=#00CC66;" vertex="1" parent="1">
          <mxGeometry x="52.75" y="597.75" width="156.25" height="31.75" as="geometry" />
        </mxCell>
        <mxCell id="8ZSUCNv75TxHgOJGjgsO-27" value="Platform" style="text;strokeColor=none;align=center;fillColor=none;html=1;verticalAlign=middle;whiteSpace=wrap;rounded=0;rotation=-91;" vertex="1" parent="1">
          <mxGeometry x="100" y="580" width="60" height="30" as="geometry" />
        </mxCell>
        <mxCell id="8ZSUCNv75TxHgOJGjgsO-28" value="Product(s)" style="text;strokeColor=none;align=center;fillColor=none;html=1;verticalAlign=middle;whiteSpace=wrap;rounded=0;rotation=-91;" vertex="1" parent="1">
          <mxGeometry x="101" y="445" width="60" height="30" as="geometry" />
        </mxCell>
      </root>
    </mxGraphModel>
  </diagram>
</mxfile>
